<mxfile host="app.diagrams.net" modified="2023-10-25T14:43:19.501Z" agent="Mozilla/5.0 (Windows NT 10.0; Win64; x64; rv:109.0) Gecko/20100101 Firefox/118.0" etag="v4vu6yKqJe6bvPwuWjmD" version="22.0.8" type="device">
  <diagram name="Page-1" id="8Q1Am_BopKyz5DW3NYtt">
    <mxGraphModel dx="1434" dy="782" grid="1" gridSize="10" guides="1" tooltips="1" connect="1" arrows="1" fold="1" page="1" pageScale="1" pageWidth="850" pageHeight="1100" math="0" shadow="0">
      <root>
        <mxCell id="0" />
        <mxCell id="1" parent="0" />
        <mxCell id="M4ZQJ-NP226QuZXMDCbv-1" value="index.js" style="rounded=0;whiteSpace=wrap;html=1;" vertex="1" parent="1">
          <mxGeometry x="380" y="30" width="120" height="60" as="geometry" />
        </mxCell>
        <mxCell id="M4ZQJ-NP226QuZXMDCbv-5" value="" style="endArrow=none;html=1;rounded=0;" edge="1" parent="1" source="M4ZQJ-NP226QuZXMDCbv-1" target="M4ZQJ-NP226QuZXMDCbv-4">
          <mxGeometry width="50" height="50" relative="1" as="geometry">
            <mxPoint x="360" y="600" as="sourcePoint" />
            <mxPoint x="440" y="520" as="targetPoint" />
          </mxGeometry>
        </mxCell>
        <mxCell id="M4ZQJ-NP226QuZXMDCbv-6" value="save.js" style="rounded=0;whiteSpace=wrap;html=1;fillColor=#cce5ff;strokeColor=#36393d;" vertex="1" parent="1">
          <mxGeometry x="450" y="190" width="120" height="60" as="geometry" />
        </mxCell>
        <mxCell id="M4ZQJ-NP226QuZXMDCbv-7" value="" style="endArrow=none;html=1;rounded=0;" edge="1" parent="1" source="M4ZQJ-NP226QuZXMDCbv-1" target="M4ZQJ-NP226QuZXMDCbv-6">
          <mxGeometry width="50" height="50" relative="1" as="geometry">
            <mxPoint x="395" y="710" as="sourcePoint" />
            <mxPoint x="395" y="670" as="targetPoint" />
          </mxGeometry>
        </mxCell>
        <mxCell id="M4ZQJ-NP226QuZXMDCbv-8" value="" style="endArrow=none;html=1;rounded=0;" edge="1" parent="1" source="M4ZQJ-NP226QuZXMDCbv-11" target="M4ZQJ-NP226QuZXMDCbv-1">
          <mxGeometry width="50" height="50" relative="1" as="geometry">
            <mxPoint x="300" y="170" as="sourcePoint" />
            <mxPoint x="420" y="510" as="targetPoint" />
          </mxGeometry>
        </mxCell>
        <mxCell id="M4ZQJ-NP226QuZXMDCbv-4" value="&lt;div&gt;constructURLobject.js&lt;/div&gt;" style="rounded=0;whiteSpace=wrap;html=1;fillColor=#cce5ff;strokeColor=#36393d;" vertex="1" parent="1">
          <mxGeometry x="280" y="190" width="120" height="60" as="geometry" />
        </mxCell>
        <mxCell id="M4ZQJ-NP226QuZXMDCbv-11" value="userprefs.json" style="shape=note;whiteSpace=wrap;html=1;backgroundOutline=1;darkOpacity=0.05;fillColor=#cdeb8b;strokeColor=#36393d;" vertex="1" parent="1">
          <mxGeometry x="210" y="10" width="80" height="100" as="geometry" />
        </mxCell>
        <mxCell id="M4ZQJ-NP226QuZXMDCbv-13" value="cheerio" style="rounded=1;whiteSpace=wrap;html=1;fillColor=#ffcccc;strokeColor=#36393d;" vertex="1" parent="1">
          <mxGeometry x="640" y="90" width="120" height="60" as="geometry" />
        </mxCell>
        <mxCell id="M4ZQJ-NP226QuZXMDCbv-14" value="puppeteer" style="rounded=1;whiteSpace=wrap;html=1;fillColor=#ffcccc;strokeColor=#36393d;" vertex="1" parent="1">
          <mxGeometry x="640" y="10" width="120" height="60" as="geometry" />
        </mxCell>
        <mxCell id="M4ZQJ-NP226QuZXMDCbv-15" value="" style="endArrow=none;html=1;rounded=0;" edge="1" parent="1" source="M4ZQJ-NP226QuZXMDCbv-13" target="M4ZQJ-NP226QuZXMDCbv-1">
          <mxGeometry width="50" height="50" relative="1" as="geometry">
            <mxPoint x="260" y="205" as="sourcePoint" />
            <mxPoint x="380" y="180" as="targetPoint" />
          </mxGeometry>
        </mxCell>
        <mxCell id="M4ZQJ-NP226QuZXMDCbv-16" value="" style="endArrow=none;html=1;rounded=0;" edge="1" parent="1" source="M4ZQJ-NP226QuZXMDCbv-14" target="M4ZQJ-NP226QuZXMDCbv-1">
          <mxGeometry width="50" height="50" relative="1" as="geometry">
            <mxPoint x="350" y="80" as="sourcePoint" />
            <mxPoint x="417" y="149" as="targetPoint" />
          </mxGeometry>
        </mxCell>
        <mxCell id="M4ZQJ-NP226QuZXMDCbv-17" value="fs" style="rounded=1;whiteSpace=wrap;html=1;fillColor=#ffcccc;strokeColor=#36393d;" vertex="1" parent="1">
          <mxGeometry x="640" y="190" width="120" height="60" as="geometry" />
        </mxCell>
        <mxCell id="M4ZQJ-NP226QuZXMDCbv-18" value="" style="endArrow=none;html=1;rounded=0;" edge="1" parent="1" source="M4ZQJ-NP226QuZXMDCbv-6" target="M4ZQJ-NP226QuZXMDCbv-17">
          <mxGeometry width="50" height="50" relative="1" as="geometry">
            <mxPoint x="470" y="210" as="sourcePoint" />
            <mxPoint x="520" y="280" as="targetPoint" />
          </mxGeometry>
        </mxCell>
        <mxCell id="M4ZQJ-NP226QuZXMDCbv-19" value="siteinfo.json" style="shape=note;whiteSpace=wrap;html=1;backgroundOutline=1;darkOpacity=0.05;fillColor=#cdeb8b;strokeColor=#36393d;" vertex="1" parent="1">
          <mxGeometry x="50" y="250" width="80" height="100" as="geometry" />
        </mxCell>
        <mxCell id="M4ZQJ-NP226QuZXMDCbv-20" value="" style="endArrow=none;html=1;rounded=0;" edge="1" parent="1" source="M4ZQJ-NP226QuZXMDCbv-19" target="M4ZQJ-NP226QuZXMDCbv-4">
          <mxGeometry width="50" height="50" relative="1" as="geometry">
            <mxPoint x="300" y="70" as="sourcePoint" />
            <mxPoint x="390" y="70" as="targetPoint" />
          </mxGeometry>
        </mxCell>
        <mxCell id="M4ZQJ-NP226QuZXMDCbv-21" value="structuredGetURL" style="rounded=0;whiteSpace=wrap;html=1;fillColor=#ffcc99;strokeColor=#36393d;" vertex="1" parent="1">
          <mxGeometry x="280" y="290" width="120" height="60" as="geometry" />
        </mxCell>
        <mxCell id="M4ZQJ-NP226QuZXMDCbv-22" value="" style="endArrow=none;html=1;rounded=0;" edge="1" parent="1" source="M4ZQJ-NP226QuZXMDCbv-21" target="M4ZQJ-NP226QuZXMDCbv-4">
          <mxGeometry width="50" height="50" relative="1" as="geometry">
            <mxPoint x="140" y="297" as="sourcePoint" />
            <mxPoint x="290" y="249" as="targetPoint" />
          </mxGeometry>
        </mxCell>
        <mxCell id="M4ZQJ-NP226QuZXMDCbv-23" value="structuredURL" style="rounded=0;whiteSpace=wrap;html=1;fillColor=#ffcc99;strokeColor=#36393d;" vertex="1" parent="1">
          <mxGeometry x="280" y="380" width="120" height="60" as="geometry" />
        </mxCell>
        <mxCell id="M4ZQJ-NP226QuZXMDCbv-24" value="" style="endArrow=none;html=1;rounded=0;" edge="1" parent="1" source="M4ZQJ-NP226QuZXMDCbv-23" target="M4ZQJ-NP226QuZXMDCbv-21">
          <mxGeometry width="50" height="50" relative="1" as="geometry">
            <mxPoint x="350" y="300" as="sourcePoint" />
            <mxPoint x="350" y="260" as="targetPoint" />
          </mxGeometry>
        </mxCell>
        <mxCell id="M4ZQJ-NP226QuZXMDCbv-25" value="" style="endArrow=none;html=1;rounded=0;" edge="1" parent="1" source="M4ZQJ-NP226QuZXMDCbv-19" target="M4ZQJ-NP226QuZXMDCbv-21">
          <mxGeometry width="50" height="50" relative="1" as="geometry">
            <mxPoint x="140" y="297" as="sourcePoint" />
            <mxPoint x="290" y="249" as="targetPoint" />
          </mxGeometry>
        </mxCell>
      </root>
    </mxGraphModel>
  </diagram>
</mxfile>
